/* XPM */
static char *result[] = {
/* columns rows colors chars-per-pixel */
"5 5 2 1 ",
"  c black",
". c None",
/* pixels */
".  ..",
"... .",
".  ..",
"... .",
".  .."
};
