/* XPM */
static char *_9233_2db92e35cc81c7b4ed65401195e613ff04a6d6cf334b25e63ebcfb785652e141[] = {
/* columns rows colors chars-per-pixel */
"50 47 256 2 ",
"   c #19160E",
".  c #1E1812",
"X  c #25180E",
"o  c #221B15",
"O  c #281D17",
"+  c #321911",
"@  c #25231A",
"#  c #2B241B",
"$  c #2C2A1D",
"%  c #272317",
"&  c #35261C",
"*  c #23200F",
"=  c #2E2C23",
"-  c #2C2A28",
";  c #322D22",
":  c #372D26",
">  c #353125",
",  c #3B332A",
"<  c #3D392D",
"1  c #373428",
"2  c #3A3A35",
"3  c #302E2F",
"4  c #51281A",
"5  c #78371B",
"6  c #6B2D17",
"7  c #592B2B",
"8  c #463829",
"9  c #58342C",
"0  c #433D32",
"q  c #453736",
"w  c #593534",
"e  c #4E2C2E",
"r  c #6D2A2B",
"t  c #662928",
"y  c #732C2C",
"u  c #792B29",
"i  c #6A332A",
"p  c #783528",
"a  c #692D35",
"s  c #762C32",
"d  c #693636",
"f  c #733334",
"g  c #7B353A",
"h  c #7A3938",
"j  c #651D21",
"k  c #7B4D1A",
"l  c #4C432A",
"z  c #57492B",
"x  c #484539",
"c  c #524C3C",
"v  c #564839",
"b  c #5C513B",
"n  c #644637",
"m  c #79433B",
"M  c #734F33",
"N  c #756335",
"B  c #574A1E",
"V  c #333251",
"C  c #393A67",
"Z  c #393478",
"A  c #2C326D",
"S  c #443955",
"D  c #4F3C45",
"F  c #6F3D4C",
"G  c #453C74",
"H  c #4A376C",
"J  c #703A6A",
"K  c #3B454B",
"L  c #3B4475",
"P  c #584C44",
"I  c #545243",
"U  c #5A5548",
"Y  c #534F54",
"T  c #694546",
"R  c #774646",
"E  c #645848",
"W  c #6D5253",
"Q  c #696458",
"!  c #756856",
"~  c #7A6C52",
"^  c #46466C",
"/  c #464978",
"(  c #585173",
")  c #764766",
"_  c #6A587B",
"`  c #6E4D72",
"'  c #7A7A74",
"]  c #756A6B",
"[  c #5B6365",
"{  c #852E2E",
"}  c #88352A",
"|  c #97392B",
" . c #833532",
".. c #883A36",
"X. c #943C3B",
"o. c #9B3A3B",
"O. c #953835",
"+. c #872F33",
"@. c #A43B3C",
"#. c #A8393B",
"$. c #B63C3E",
"%. c #8E3314",
"&. c #864829",
"*. c #97452C",
"=. c #884638",
"-. c #994438",
";. c #935632",
":. c #A74A3B",
">. c #A65A36",
",. c #AD5631",
"<. c #936B2B",
"1. c #B26B39",
"2. c #88521D",
"3. c #CC763D",
"4. c #C2553E",
"5. c #8A3C44",
"6. c #983C45",
"7. c #9C3F51",
"8. c #A53E43",
"9. c #AF3E4A",
"0. c #89464A",
"q. c #994648",
"w. c #8B5745",
"e. c #98544A",
"r. c #994B55",
"t. c #995557",
"y. c #895054",
"u. c #A64649",
"i. c #B6484A",
"p. c #A45748",
"a. c #A84654",
"s. c #B84A55",
"d. c #AB5859",
"f. c #B85558",
"g. c #B95846",
"h. c #856955",
"j. c #88765A",
"k. c #947658",
"l. c #916E4C",
"z. c #A86948",
"x. c #B76E52",
"c. c #8C536E",
"v. c #B95B63",
"b. c #AD576B",
"n. c #877769",
"m. c #937175",
"M. c #BA6468",
"N. c #B0716C",
"B. c #C64A4B",
"V. c #C54C54",
"C. c #D54E58",
"Z. c #C65859",
"A. c #D95659",
"S. c #C85847",
"D. c #E2505A",
"F. c #C67644",
"G. c #C7625C",
"H. c #CE6C52",
"J. c #E3655B",
"K. c #CC5B62",
"L. c #C55A64",
"P. c #D65B65",
"I. c #D35F72",
"U. c #E65A65",
"Y. c #CC6365",
"T. c #C96769",
"R. c #D3646A",
"E. c #DD646C",
"W. c #D8696A",
"Q. c #C37A6A",
"!. c #C76674",
"~. c #D86A73",
"^. c #DB7578",
"/. c #CA7578",
"(. c #E46365",
"). c #E3646B",
"_. c #E86768",
"`. c #E76A75",
"'. c #EB727C",
"]. c #E57477",
"[. c #F16B6A",
"{. c #AE8A3C",
"}. c #9B8C37",
"|. c #C4A13B",
" X c #E5C63C",
".X c #EFD13F",
"XX c #DAC339",
"oX c #968652",
"OX c #B0904F",
"+X c #988B67",
"@X c #998878",
"#X c #928C6A",
"$X c #A79768",
"%X c #AB966F",
"&X c #ABA774",
"*X c #BDB37D",
"=X c #B1A771",
"-X c #DB8C5A",
";X c #D58B56",
":X c #E38C48",
">X c #E89458",
",X c #EA9554",
"<X c #CFAE49",
"1X c #E4BD46",
"2X c #D0936C",
"3X c #E49B69",
"4X c #E1827C",
"5X c #CDAD72",
"6X c #F0A86E",
"7X c #E9C848",
"8X c #EED051",
"9X c #E9CF64",
"0X c #F2F171",
"qX c #D8CC62",
"wX c #3B3B87",
"eX c #343D8C",
"rX c #4B3B91",
"tX c #3A4288",
"yX c #3B4396",
"uX c #3E4CA4",
"iX c #594688",
"pX c #4C5587",
"aX c #585487",
"sX c #46469A",
"dX c #4D4E8F",
"fX c #675486",
"gX c #6E6688",
"hX c #747095",
"jX c #4949A6",
"kX c #4D4EA5",
"lX c #5B68B4",
"zX c #696AA5",
"xX c #7977A8",
"cX c #7174AD",
"vX c #5A6597",
"bX c #606FC0",
"nX c #8C598D",
"mX c #8E728F",
"MX c #B36F8D",
"NX c #A75C83",
"BX c #DA7887",
"VX c #C87189",
"CX c #E67186",
"ZX c #7785B6",
"AX c #7885AE",
"SX c #758AC1",
"DX c #998F86",
"FX c #AC938B",
"GX c #BCAF8B",
"HX c #BEAEAE",
"JX c #C7B988",
"KX c #C7BB91",
"LX c #CBB28B",
"PX c #CC9E98",
"IX c #D2C598",
"UX c #FCFA81",
/* pixels */
"3 = = ; = $ $ $ $ c c U I x x < 1 U Q E E b N Z.J._.].].`.`.[._.).P.C.V.a.d.#.o.u.X.6.r.d : $ x ' ' ",
"- = ; = $ ; > @ 1 E U c U U I l l < l b b N k.S.(.`.[.]._.[.`.R.Z.Z.s.#.q.:.| u.X.q.5.t.n & # U ' ' ",
"= = 3 ; $ > $ $ $ b U I U U U c x 0 1 l B oX5XS.[.J.(._.E.(.P.A.f.u.p.-.q.-.o.5...5. .0.R $ 3 Q ' ' ",
"1 = ; > $ ; $ % = < c U c c Q U E I z z z qXqXG.(.A.(.(._.W.A.Z.e.=.i n h -.} f d f y g R > 2 ] ' ' ",
"3 = 3 ; ; = = % < ; < c c x E E Q U b b N 0X9XH.J.A.U.[._.Y.p.=.k k <.<.9 f ..d d d a d F : U ' ' ' ",
"= $ = ; > $ $ $ x < > , x c c U b U E z l.UXqXF.S.B.J.`.G.*.2.<.{.<XqXOXi f f 9 w d t d 9 : x Y [ ' ",
"= = = ; > % @ 1 < x 8 > l 0 < c b c b z oX0X0X;X4.J.H.:.&.<.|.1X7X7X8X|.8 f ..d w w 7 F 9 # # - 2 I ",
"$ , 1 $ $ % $ 1 0 x < > > 1 : < b I P z }.0X0X{.x.p.2.1.|.1X1X X8X8X9X{.4 n h a 7 a t a 7 O 2 q - - ",
"# , - 2 x b , 3 1 $ 8 8 $ > x c c I z z oX0X0XOXM 2.{.1XXX X7X7X.X.X8Xk 9 d m r 7 9 7 w e # x U Y K ",
"0 - K Y I 0 1 @ = > v 8 , > < c U I l z N qX0X<.B {.8XXX7X8X7X7X X0X;X6 m i h h a d 9 i 7 # q Y I Y ",
"@ x [ K 2 = % $ 0 E w b , $ ; : > , z B M 5XOX2.q.2.1X.X.X8XXX8XqX{.6 f h h  .h a d d d e O 2 I < 2 ",
"K [ L K K 2 % U DXE l : O $ # $ # 0 8 8 n l.;.e.p.5 1.8X.X.X9X<X<.6 k h &.&.p f d h h d e O > 2 < 1 ",
"' ' [ [ K K % ] n.v v 8 % % # $ & & z n 4 w.d.g.,.-.5 {.qX<X<.5 i =...} } u ..F g f a d : O - - = = ",
"#X@X' ' ' Q c ! ! ~ ! c & $ O ; & + b z 4 e.M.f.g.-.=.i k p 5 | -.+.{ -.} 0.h ..s r t 9 + # # O @ . ",
"Q j.#X#X#XQ Q Q n.DX~ b l O & , , 8 E n z =.G.f.s.q.q...-.O.| %.| O.X...=.g s p g ..d 8 o o O % O - ",
"&X#X#X&X#X#Xj.~ ! ] ~ ! v P v FXHXn.@Xw & &.f.Z.p.-.*.*.} | | | :.}  .} m ....s g ..t X o o X o . O ",
"$X=XoX$X$X+X+Xn.oX~ ! ! j.@Xm.HXHXHX@XE n h g.g.e.=.} | } | | | } O.} u =.g F p y R & & > > & O O . ",
"5XGX%X%X$X$X+X%X#X+X~ j.j.k.@X@XDXDXQ I R w.x.;...| }  .} } -.| } O.......a d i f t + : x 2 < 1 O   ",
"IXGXGXGXJXJX$X=X=X$X$X$X$XoX+X%X%Xh.l.x.2X2X-XF.*.} ....{ 6 u p } O...=.f f g h d 7 + : 0 x I x . . ",
"GXKXKXKXJX5X5XLXIX*XLXGXKX&XoX%X%X2X3X3X-XF.1.1.>.&.5 6 6 j 4 6 { +... .p y h h i 9 + X @ = 0 > .   ",
"GXIXIX*X=X$XJXIXIXIXKXIX*X$XOXLX3X-X;Xx.;.k =.&.g.z.>.<.2.5 5 5 6 { ..p p r g r t 7 + X     - @ .   ",
"JXIX*X*X=X=XIXLXJXIXIXJX$XOX5X6X3X-X>.k =.h.l.<.;.z.x.-X;X1.*.,.>.} { {  .r g i a 9 +   .   . @ .   ",
"=X&X&X&XLXLXLX2XPXPXFXDXn.FXFXmX%Xk.=.;.j.l.l.l.=.=.>.>X6X,X3.,X3X>. .{ p s s r r 7 e X . . O @     ",
"&X&X&X&X=X2XQ.Q.G.N.m.mXhXmXmXgX_ ) W h.+X+Xh.m.w.m 2.>.>X:X:X,X>X*.{ ..s s t t s t w O . O . .     ",
"&X$X$X%X%XN.W.W.!.!.T.M.T./.N.w e q 8 ~ +XoXk.k.e.;.>.1.,X:X,XF.H.&.u  .r j g y s 7 d W n.# o       ",
"*X&X%X%XN.T.^.Q.Y.d.q.r.m.t.w.l.x.OXz.k.k.k.l.k.;X2X3X,X,X:XH.3.*.5 u p y y p j 7 t 4 h.m.& O       ",
"*X&X$X%X~.W.W.~.T.G.a.u.r.5.y z.3X-X-X3Xx.z.z.OX,X,X,X:X:X3.1.| u u u r t t y j j 7 s a h.n.8 e . o ",
"oX+Xx.Q.W.Y.T.~.G.G.R.~.!.M.M.e.H.-X,X:X6X3X>X6X6X:X:X:X3.*.} 5 u u r t t j j r 7 g 7.5.g k.h.~ Y Y ",
"~ N.R.R.T.M.Y.K.Z.v.!.!.a.e.t...e.x.F.F.;X1.F.-XF.3.F.,.*.%.u r s s j r 6 j t g u 5.8.7.7.y.) ] ] ] ",
"d.T.E.!.T.T.Y.Y.Y.v.d.5.m R F ) ` R -.>.F.4.4.S.S.,.:.*.| *.+.s s s y s r u u ..8.O.q.a.r.0.( H U Q ",
"/.T.Y.R.T.Z.Y.x.e.r.q.=.t.c.( kXiXw o._.J.S.J.J.H.G.i.:.X.O.+.s u +.s s u {  .+.8.u.u.r.c.rXwXeXZ / ",
"W.Y.Y.K.K.L.d.q.6...5.t.c.) aXdXa q._.A.U._.J._.[.(.B.#.8.O...} { u { +.{ +.X...u.u.a.c.iXeXeXtXsXeX",
"Y.Y.Y.Z.f.p.0.6.7.r.y._ S G pXJ s.R.).U._.U.U.(._.J.i.:.#.@.O.+.{ { { { O.O.6.6.o.V.I.nXrXjXeXyXwXwX",
"G.Z.f.f.d.r.R R F D Y ^ H iX` v.).`.).U.)._.(.U.A.B.#.#.:.#.| O.O.+.O.| o.@.i.f.Z.'.MXiXjXjXjXrX/ C ",
"b.m.c.c.J Y S D S ^ _ aX/ rXNXU.`.U.E.).).W.E.P.B.$.:.C.B.9.@.O.O.O.O.#.i.K.~.'.`.BXnXrXuXjXeXdXpXZ ",
"fXaX( ^ S D V ( aXgXxXaXG ` CXU.).`.).E.E.K.Z.V.#.$.B.D.C.B.9.o.O.o.@.#.i.`.'.'.].MXrXkXkXjXjXrXF c.",
"c.` ( T P Y Y gXDXZXxXH G c.CXE.~.].W.W.E.K.i.8.#.$.C.D.C.C.V.s.O.6.8.8.s.'.`.`.`.nXrXkXsXuXkX( M.BX",
"d.b.5.0.F ] AXZXSXcXfXH ( NXI.`.~.~.).`.I.i.#.o.8.B.C.D.C.C.K.Y.8.@.8.i.P.CX'.'.VXfXsXkXjXsX( NXCXCX",
"y.m m N.NXhXDXSXbXzXaXC fXMXI.E.~.].^.~.K.@.O.O.#.$.C.C.C.Z.P.I.u.8.u.V.`.`.`.'.MXrXsXjXjXdXc.BXPX].",
"0.i j.FXhXZXSXSXcXpX^ / zXMX'.P.).E.W.T.s.o.o.o.#.B.C.A.P.W.Y.K.8.8.9.K.CX'.'.'.NXiXsXwXrXH b.BX].4X",
"R n m.AXZXSXcXzXvX/ L ^ m.!.).~.~.(.Z.T.t.y.6.b.G.K.P.P.`.E.L.r.6.a.s.I.'.'.BXBXnXrXrXrXwXJ ~.~.BX].",
"d T mXxXZXZXzXvXpX^ H gXN.I.U.U.K.P.W.M.0.F n r.Y.R.E.Y.E.!.f.7.8.a.s.W.].CXCXCXiXeXeXeXC c.).BX].^.",
"d ` xXcXcXzXvXpXL V L mX`.U.U.A.K.K.Y.b.n v T q.p.f.W.~./.f.7.9.a.s.L.`.`.].BXVXiXG wXZ S b.~.~.E.E.",
"w _ cXcXzXvXpX/ C V fXMXU.U.C.D.V.K.I.d.T n R 6.u.Z.W.G.M.d.7.9.9.L.).'.BXMXmXhXwXH Z A ) T.W.~.T.R.",
"P gXcXzX( / L S V L MX).C.C.D.D.f.f.I.t.d F 0.q.s.K.P.P.f.u.r.7.a.M.VXMXmXcXlXkXeXH Z Z y.P.U.E.M.v.",
"F gXvXpX^ L K V V pXNX(.C.C.D.V.t.L.d.h.R r.0.6.-.d.L.R.d.0.y.c.nXmXxXlXlXlXbXkXA A A H m.VXVX!.L.v.",
"D _ pXH C V V 3 V ( c.Z.C.C.C.p.d.K.y.E R y.h q.X.q.a.a.0.c.m.` zXlXlXlXbXbXvXeXA A A C _ gXgX] b.M."
};
